<svg xmlns="http://www.w3.org/2000/svg" xmlns:xlink="http://www.w3.org/1999/xlink"><defs><style>
    .sprite-symbol-usage {display: none;}
    .sprite-symbol-usage:target {display: inline;}
  </style><symbol viewBox="0 0 14 11" id="burger">
    <path d="M13.625 1.6383H0.375C0.167906 1.6383 0 1.48111 0 1.28723V0.351064C0 0.157189 0.167906 0 0.375 0H13.625C13.8321 0 14 0.157189 14 0.351064V1.28723C14 1.48111 13.8321 1.6383 13.625 1.6383ZM5.625 6.31915H0.375C0.167906 6.31915 0 6.16196 0 5.96809V5.03191C0 4.83804 0.167906 4.68085 0.375 4.68085H5.625C5.83209 4.68085 6 4.83804 6 5.03191V5.96809C6 6.16196 5.83209 6.31915 5.625 6.31915ZM9.625 11H0.375C0.167906 11 0 10.8428 0 10.6489V9.71277C0 9.51889 0.167906 9.3617 0.375 9.3617H9.625C9.83209 9.3617 10 9.51889 10 9.71277V10.6489C10 10.8428 9.83209 11 9.625 11Z" />
</symbol><symbol viewBox="0 0 11 11" id="cross">
    <path d="M6.6669 5.50017L10.1925 1.97456L10.9196 1.24751C11.0268 1.14025 11.0268 0.965968 10.9196 0.858715L10.1416 0.0807838C10.0344 -0.0264695 9.86009 -0.0264695 9.75284 0.0807838L5.50017 4.33345L1.24751 0.08044C1.14025 -0.0268133 0.965968 -0.0268133 0.858714 0.08044L0.08044 0.858371C-0.0268133 0.965624 -0.0268133 1.13991 0.08044 1.24716L4.33345 5.50017L0.08044 9.75284C-0.0268133 9.86009 -0.0268133 10.0344 0.08044 10.1416L0.858371 10.9196C0.965624 11.0268 1.13991 11.0268 1.24716 10.9196L5.50017 6.6669L9.02578 10.1925L9.75284 10.9196C9.86009 11.0268 10.0344 11.0268 10.1416 10.9196L10.9196 10.1416C11.0268 10.0344 11.0268 9.86009 10.9196 9.75284L6.6669 5.50017Z" />
</symbol><symbol viewBox="0 0 16 12" id="letter">
    <path d="M14.5 0H1.5C0.671875 0 0 0.671875 0 1.5V10.5C0 11.3281 0.671875 12 1.5 12H14.5C15.3281 12 16 11.3281 16 10.5V1.5C16 0.671875 15.3281 0 14.5 0ZM1.5 1H14.5C14.775 1 15 1.225 15 1.5V2.79375C14.3156 3.37187 13.3375 4.16875 10.2937 6.58437C9.76562 7.00313 8.725 8.0125 8 8C7.275 8.0125 6.23125 7.00313 5.70625 6.58437C2.6625 4.16875 1.68437 3.37187 1 2.79375V1.5C1 1.225 1.225 1 1.5 1ZM14.5 11H1.5C1.225 11 1 10.775 1 10.5V4.09375C1.7125 4.67812 2.8375 5.58125 5.08437 7.36563C5.725 7.87813 6.85625 9.00625 8 9C9.1375 9.00937 10.2594 7.89062 10.9156 7.36563C13.1625 5.58125 14.2875 4.67812 15 4.09375V10.5C15 10.775 14.775 11 14.5 11Z" />
</symbol><symbol viewBox="0 0 15 16" id="lock">
    <path d="M7.11111 13.125C6.76191 13.125 6.47619 12.8438 6.47619 12.5V10.5C6.47619 10.1563 6.76191 9.87501 7.11111 9.87501C7.46032 9.87501 7.74603 10.1563 7.74603 10.5V12.5C7.74603 12.8438 7.46032 13.125 7.11111 13.125ZM14.2222 8.50001V14.5C14.2222 15.3281 13.5397 16 12.6984 16H1.52381C0.68254 16 0 15.3281 0 14.5V8.50001C0 7.67189 0.68254 7.00002 1.52381 7.00002H2.03175V5.00002C2.03175 2.23752 4.31746 -0.00934575 7.12698 2.92313e-05C9.93333 0.00940422 12.1905 2.2844 12.1905 5.0469V7.00002H12.6984C13.5397 7.00002 14.2222 7.67189 14.2222 8.50001ZM3.04762 7.00002H11.1746V5.00002C11.1746 2.79377 9.35238 1.00003 7.11111 1.00003C4.86984 1.00003 3.04762 2.79377 3.04762 5.00002V7.00002ZM13.2064 14.5V8.50001C13.2064 8.22501 12.9778 8.00002 12.6984 8.00002H1.52381C1.24444 8.00002 1.01587 8.22501 1.01587 8.50001V14.5C1.01587 14.775 1.24444 15 1.52381 15H12.6984C12.9778 15 13.2064 14.775 13.2064 14.5Z" />
</symbol><symbol viewBox="0 0 14 11" id="log">
    <path d="M2.62487 0H4.92163C5.10209 0 5.24974 0.147649 5.24974 0.328109V0.984327C5.24974 1.16479 5.10209 1.31244 4.92163 1.31244H2.62487C1.9003 1.31244 1.31244 1.9003 1.31244 2.62487V7.87462C1.31244 8.59919 1.9003 9.18705 2.62487 9.18705H4.92163C5.10209 9.18705 5.24974 9.3347 5.24974 9.51516V10.1714C5.24974 10.3518 5.10209 10.4995 4.92163 10.4995H2.62487C1.17572 10.4995 0 9.32376 0 7.87462V2.62487C0 1.17572 1.17572 0 2.62487 0ZM8.9437 0.533177L8.40779 1.06909C8.27655 1.20033 8.27928 1.41087 8.41326 1.53664L11.5057 4.53884H4.7029C4.52244 4.53884 4.37479 4.68649 4.37479 4.86695V5.63254C4.37479 5.813 4.52244 5.96065 4.7029 5.96065H11.5057L8.41326 8.96011C8.28202 9.08862 8.27928 9.29916 8.40779 9.42766L8.9437 9.96358C9.07221 10.0921 9.28002 10.0921 9.40853 9.96358L13.9036 5.47942C14.0321 5.35091 14.0321 5.14311 13.9036 5.0146L9.40853 0.530443C9.28002 0.404668 9.07221 0.404668 8.9437 0.533177Z" />
</symbol><symbol viewBox="0 0 21 21" id="logo">
    <path fill-rule="evenodd" clip-rule="evenodd" d="M0 0V6H3V0H0ZM6 0V21H9V0H6ZM12 0V21H15V0H12ZM18 6V0H21V6H18Z" />
</symbol><symbol viewBox="0 0 16 16" fill="none" id="loupe">
    <path d="M3.27344 8.58594C4.0026 9.3151 4.88802 9.67969 5.92969 9.67969C6.97135 9.67969 7.85677 9.3151 8.58594 8.58594C9.3151 7.85677 9.67969 6.97135 9.67969 5.92969C9.67969 4.88802 9.3151 4.0026 8.58594 3.27344C7.85677 2.54427 6.97135 2.17969 5.92969 2.17969C4.88802 2.17969 4.0026 2.54427 3.27344 3.27344C2.54427 4.0026 2.17969 4.88802 2.17969 5.92969C2.17969 6.97135 2.54427 7.85677 3.27344 8.58594ZM10.9297 9.67969L15.0703 13.8203L13.8203 15.0703L9.67969 10.9297V10.2656L9.44531 10.0312C8.45573 10.8906 7.28385 11.3203 5.92969 11.3203C4.41927 11.3203 3.13021 10.7995 2.0625 9.75781C1.02083 8.71615 0.5 7.4401 0.5 5.92969C0.5 4.41927 1.02083 3.14323 2.0625 2.10156C3.13021 1.03385 4.41927 0.5 5.92969 0.5C7.4401 0.5 8.71615 1.03385 9.75781 2.10156C10.7995 3.14323 11.3203 4.41927 11.3203 5.92969C11.3203 6.47656 11.1901 7.10156 10.9297 7.80469C10.6693 8.48177 10.3698 9.02865 10.0312 9.44531L10.2656 9.67969H10.9297Z" fill="#616161" />
</symbol><symbol viewBox="0 0 14 14" id="wheel">
    <path d="M12.3734 6.48049L13.2441 5.97785C13.5019 5.82908 13.6268 5.52553 13.5498 5.2381C13.2379 4.07514 12.6244 3.03564 11.7982 2.20849C11.5882 1.99827 11.2629 1.95567 11.0056 2.10428L10.1365 2.60626C9.85417 2.40421 9.5529 2.23004 9.23692 2.08618V1.08122C9.2369 0.936468 9.18906 0.79578 9.10083 0.681028C9.01261 0.566276 8.88894 0.483889 8.74905 0.446677C7.60715 0.14297 6.39429 0.142587 5.25097 0.44665C4.96334 0.523158 4.76304 0.783552 4.76304 1.08119V2.08615C4.44707 2.23001 4.1458 2.40418 3.86346 2.60623L2.99434 2.10426C2.73704 1.95564 2.41178 1.99824 2.20178 2.20846C1.37556 3.03561 0.762025 4.07508 0.450197 5.23807C0.373115 5.52551 0.498076 5.82905 0.755818 5.97783L1.62653 6.48049C1.59317 6.82603 1.59317 7.17398 1.62653 7.51952L0.755818 8.02216C0.498076 8.17093 0.373115 8.47447 0.450197 8.76191C0.762025 9.92487 1.37556 10.9644 2.20178 11.7915C2.41178 12.0017 2.73704 12.0443 2.99434 11.8957L3.86346 11.3937C4.14579 11.5958 4.44706 11.77 4.76304 11.9138V12.9188C4.76306 13.0635 4.8109 13.2042 4.89913 13.319C4.98736 13.4337 5.11103 13.5161 5.25091 13.5533C6.39281 13.857 7.60567 13.8574 8.749 13.5533C9.03663 13.4768 9.23692 13.2164 9.23692 12.9188V11.9138C9.55289 11.77 9.85416 11.5958 10.1365 11.3938L11.0056 11.8958C11.2629 12.0444 11.5882 12.0018 11.7982 11.7915C12.6244 10.9644 13.2379 9.9249 13.5498 8.76194C13.6268 8.4745 13.5019 8.17096 13.2441 8.02218L12.3734 7.51955C12.4068 7.17365 12.4068 6.82638 12.3734 6.48049ZM10.933 8.20366L12.1312 8.89516C11.9156 9.47725 11.6027 10.0184 11.2056 10.4955L10.0072 9.80349C9.1326 10.5526 9.00477 10.6259 7.92445 11.0074V12.391C7.31256 12.4954 6.6874 12.4954 6.07552 12.391V11.0074C4.99533 10.626 4.86703 10.5524 3.9928 9.80349L2.79435 10.4955C2.39731 10.0184 2.08432 9.47724 1.86879 8.89516L3.06697 8.20366C2.85833 7.07439 2.85822 6.92619 3.06697 5.79637L1.86879 5.10488C2.08344 4.5244 2.3968 3.98244 2.79435 3.50447L3.9928 4.19652C4.86736 3.44738 4.99522 3.37407 6.07552 2.9926V1.60906C6.6874 1.50461 7.31256 1.50461 7.92445 1.60906V2.99263C9.00463 3.37407 9.13293 3.44768 10.0072 4.19654L11.2056 3.5045C11.6027 3.98162 11.9156 4.52281 12.1312 5.1049L10.933 5.7964C11.1417 6.9257 11.1417 7.07385 10.933 8.20366ZM6.99998 4.37502C5.55254 4.37502 4.37498 5.55258 4.37498 7.00002C4.37498 8.44746 5.55254 9.62502 6.99998 9.62502C8.44742 9.62502 9.62498 8.44746 9.62498 7.00002C9.62498 5.55258 8.44742 4.37502 6.99998 4.37502ZM6.99998 8.31252C6.27625 8.31252 5.68748 7.72375 5.68748 7.00002C5.68748 6.27631 6.27625 5.68752 6.99998 5.68752C7.72372 5.68752 8.31248 6.27631 8.31248 7.00002C8.31248 7.72375 7.72372 8.31252 6.99998 8.31252Z" />
</symbol><symbol viewBox="0 0 9 19" id="woman">
    <path d="M8.95247 12.6503L7.54942 6.55407C7.46266 6.1648 7.25478 5.81747 6.959 5.56759C6.90789 5.52464 6.85443 5.48489 6.7989 5.44855C7.29274 4.86968 7.59375 4.10407 7.59375 3.26562C7.59375 1.46497 6.20589 0 4.5 0C2.79411 0 1.40624 1.46497 1.40624 3.26562C1.40624 4.10407 1.70725 4.86968 2.20109 5.44855C2.14556 5.48488 2.0921 5.52463 2.04099 5.56759C1.74522 5.81748 1.53734 6.16481 1.45058 6.55407L0.0475253 12.6503C-0.206303 13.7512 0.587666 14.8438 1.68915 14.8438H2.14453V17.0332C2.14453 18.1177 2.9804 19 4.00781 19H4.99219C6.01959 19 6.85547 18.1177 6.85547 17.0332V14.8438H7.31081C8.41222 14.8438 9.20633 13.7514 8.95247 12.6503ZM4.5 1.1875C5.58731 1.1875 6.46875 2.11791 6.46875 3.26562C6.46875 4.41334 5.58731 5.34375 4.5 5.34375C3.41268 5.34375 2.53125 4.41334 2.53125 3.26562C2.53125 2.11791 3.41268 1.1875 4.5 1.1875ZM7.3125 13.6562H5.73047V17.0332C5.73047 17.4636 5.39993 17.8125 4.99219 17.8125H4.00781C3.60007 17.8125 3.26953 17.4636 3.26953 17.0332V13.6562H1.6875C1.32683 13.6562 1.05901 13.3023 1.13899 12.9309L2.54524 6.82812C2.5735 6.69687 2.64317 6.57965 2.74283 6.49567C2.84249 6.4117 2.96623 6.36597 3.09375 6.36596H3.52796C4.15917 6.58643 4.84086 6.58643 5.47207 6.36596H5.90625C6.03377 6.36597 6.1575 6.4117 6.25716 6.49567C6.35682 6.57965 6.4265 6.69687 6.45476 6.82812L7.86101 12.9309C7.94095 13.3022 7.67327 13.6562 7.3125 13.6562Z" />
</symbol></defs><use id="burger-usage" xlink:href="#burger" class="sprite-symbol-usage" /><use id="cross-usage" xlink:href="#cross" class="sprite-symbol-usage" /><use id="letter-usage" xlink:href="#letter" class="sprite-symbol-usage" /><use id="lock-usage" xlink:href="#lock" class="sprite-symbol-usage" /><use id="log-usage" xlink:href="#log" class="sprite-symbol-usage" /><use id="logo-usage" xlink:href="#logo" class="sprite-symbol-usage" /><use id="loupe-usage" xlink:href="#loupe" class="sprite-symbol-usage" /><use id="wheel-usage" xlink:href="#wheel" class="sprite-symbol-usage" /><use id="woman-usage" xlink:href="#woman" class="sprite-symbol-usage" /></svg>